                  <svg
                    
                    width="16"
                    height="16"
                    viewBox="0 0 16 16"
                    fill="none"
                    xmlns="http://www.w3.org/2000/svg"
                  >
                    <path
                      opacity="0.2"
                      d="M15.0711 8.00003C15.0711 11.9053 11.9053 15.0711 8.00003 15.0711C4.09478 15.0711 0.928955 11.9053 0.928955 8.00003C0.928955 4.09478 4.09478 0.928955 8.00003 0.928955C11.9053 0.928955 15.0711 4.09478 15.0711 8.00003ZM3.05028 8.00003C3.05028 10.7337 5.26635 12.9498 8.00003 12.9498C10.7337 12.9498 12.9498 10.7337 12.9498 8.00003C12.9498 5.26635 10.7337 3.05028 8.00003 3.05028C5.26635 3.05028 3.05028 5.26635 3.05028 8.00003Z"
                      fill="#6041D8"
                    />
                    <path
                      d="M7.05851 0.991865C8.16446 0.843284 9.28988 0.95856 10.3427 1.32826C11.3956 1.69797 12.346 2.31161 13.1163 3.11901L11.5814 4.5833C11.0422 4.01812 10.3769 3.58857 9.63993 3.32978C8.90292 3.07098 8.11513 2.99029 7.34097 3.0943L7.05851 0.991865Z"
                      fill="#6041D8"
                    />
                  </svg>